# xmcd
#
# Track frame offsets:
# 183
# 13090
# 28075
# 46325
#
# Disc length: 879 seconds
#
#
# Revision: 2
# Processed by: cddbd v1.5.1PL2 Copyright (c) Steve Scherf et al.
# Submitted via: FreeRIP 2.944 
#
DISCID=2a036d04
DTITLE=LUV - Megamix '93
DYEAR=1900
DGENRE=
TTITLE0=Megamix (Radio Version)
TTITLE1=You're the greatest lover 1993
TTITLE2=Megamix by Hans Van Hemert
TTITLE3=Megamix by Dancability (Long Version)
EXTD=
EXTT0=
EXTT1=
EXTT2=
EXTT3=
PLAYORDER=
